# xmcd
#
# Track frame offsets: 
#        150
#        13492
#        27267
#        38526
#        49327
#        69420
#        86018
#        95016
#        109659
#        124092
#
# Disc length: 1855 seconds
#
# Revision: 1
# Processed by: cddbd v1.5.2PL0 Copyright (c) Steve Scherf et al.
# Submitted via: ExactAudioCopy v0.99pb5
#
DISCID=82073d0a
DTITLE=Eleven Hundred Springs - Straighter Line
DYEAR=2001
DGENRE=Country
TTITLE0=Sad And Lonesome Song
TTITLE1=Long-Haired, Tattooed Hippie Freaks
TTITLE2=Thunderbird Will Do Just Fine
TTITLE3=It Don't Mean A Thing To You
TTITLE4=Bird On A Wire
TTITLE5=Good Times, Hard Livin'
TTITLE6=Hey Jukebox
TTITLE7=See You In The Next Life
TTITLE8=The Ballad Of Anna Stone
TTITLE9=A Straighter Line
EXTD=YEAR: 2001 ID3G: 2
EXTT0=
EXTT1=
EXTT2=
EXTT3=
EXTT4=
EXTT5=
EXTT6=
EXTT7=
EXTT8=
EXTT9=
PLAYORDER=
